<svg width="171" height="48" viewBox="0 0 171 48" fill="none" xmlns="http://www.w3.org/2000/svg">
<g id="Frame 1272631747" clip-path="url(#clip0_2019_8508)">
<g id="Group 1272631610">
<path id="Vector" d="M165.587 15.2472V7.6814H160.065V15.2852H159.02V20.3132H160.065V37.1461H165.587V20.3132H170.102V15.2852L165.587 15.2472Z" fill="#0D0D0D"/>
<path id="Vector_2" d="M138.397 32.2757C139.481 30.4698 140.013 28.3692 140.013 26.0026C140.013 23.1416 139.224 20.6704 137.637 18.6554V15.1196H143.245V26.8105C143.245 28.4263 143.644 29.6239 144.433 30.4128C145.222 31.1731 146.181 31.5533 147.303 31.5533C148.615 31.5533 149.708 31.1541 150.592 30.3652C151.476 29.5478 151.913 28.2837 151.913 26.5824V15.1196H157.483V36.9805H151.913V33.5113C151.333 34.6044 150.487 35.4598 149.356 36.0681C148.263 36.6764 147.151 36.9805 146.029 36.9805C143.444 36.9805 141.391 36.1917 139.87 34.6044C139.253 33.9485 138.758 33.1691 138.397 32.2757Z" fill="#0D0D0D"/>
<path id="Vector_3" d="M106.086 33.9485V36.9805H111.656V29.4528C111.656 23.4268 113.433 20.4233 116.997 20.4233C118.271 20.4233 119.355 20.6229 120.239 21.0126L121.198 15.9941C120.229 15.4808 119.05 15.2147 117.682 15.2147C116.313 15.2147 115.172 15.6709 114.079 16.5834C112.986 17.4958 112.178 18.8645 111.665 20.6894V15.1196H106.095V18.7504C107.692 20.832 108.472 23.3698 108.472 26.3067C108.472 29.2437 107.692 31.8575 106.095 33.958L106.086 33.9485Z" fill="#0D0D0D"/>
<g id="Vector_4">
<path d="M121.962 10.7988C121.905 10.8463 121.819 10.7988 121.829 10.7323L123.093 0.999426C123.093 0.932893 123.188 0.904379 123.235 0.961407L129.233 8.56521C129.28 8.62223 129.233 8.69827 129.166 8.68877L125.041 8.23254C125.041 8.23254 125.003 8.23254 124.984 8.25155L121.962 10.8083V10.7988Z" fill="#3328BF"/>
<path fill-rule="evenodd" clip-rule="evenodd" d="M122.332 0.704781C122.427 0.00142946 123.321 -0.255199 123.768 0.305581L129.993 8.20403C130.44 8.76481 129.984 9.58221 129.271 9.50618L125.421 9.07846C125.326 9.06896 125.231 9.09747 125.155 9.16401L122.332 11.5497C121.772 12.0249 120.916 11.5592 121.011 10.8273M121.905 10.7608L123.178 0.989923L129.195 8.62224L125.516 8.21353C124.995 7.89668 124.842 8.28006 124.585 8.49867L121.905 10.7703V10.7608ZM121.011 10.8273L122.332 0.704781L121.011 10.8273Z" fill="#3328BF"/>
</g>
<path id="Vector_5" d="M133.834 10.9321H136.211V11.8825H133.834V14.2587H132.884V11.8825H130.508V10.9321H132.884V8.55588H133.834V10.9321Z" fill="#3328BF"/>
<path id="Vector_6" fill-rule="evenodd" clip-rule="evenodd" d="M85.1504 34.5854V46.6849H90.6251V33.7679C91.1669 34.785 92.0318 35.5738 93.2294 36.1346C94.4555 36.7049 95.7767 36.9805 97.1834 36.9805C100.025 36.9805 102.44 35.9825 104.417 33.9866C106.422 31.962 107.43 29.3197 107.43 26.0786C107.43 22.8375 106.422 20.2807 104.417 18.2562C102.411 16.2317 99.9968 15.2147 97.1834 15.2147C95.7767 15.2147 94.4555 15.5093 93.2294 16.1081C92.0318 16.6784 91.1669 17.4673 90.6251 18.4748V15.1196H85.1504V20.2807C85.6636 20.6989 86.1104 21.1551 86.5001 21.6494C87.9258 23.4933 88.5626 25.5749 88.401 27.856C88.2775 30.6029 87.1844 32.865 85.1599 34.5758L85.1504 34.5854ZM92.336 30.2797C91.2619 29.2627 90.7202 27.894 90.7202 26.1641C90.7202 24.4343 91.2619 23.0941 92.336 22.0486C93.41 20.9746 94.7312 20.4423 96.29 20.4423C97.8487 20.4423 99.1224 20.9746 100.196 22.0486C101.27 23.1226 101.812 24.4913 101.812 26.1641C101.812 27.837 101.27 29.1867 100.196 30.2322C99.1509 31.2777 97.8487 31.8005 96.29 31.8005C94.7312 31.8005 93.448 31.2967 92.336 30.2797Z" fill="#0D0D0D"/>
<path id="Vector_7" fill-rule="evenodd" clip-rule="evenodd" d="M118.064 21.4213C117.494 22.7805 117.199 24.3012 117.199 26.0026C117.199 29.2437 118.245 31.8765 120.345 33.92C122.474 35.9635 125.069 36.9805 128.13 36.9805C131.19 36.9805 133.766 35.9635 135.867 33.92C137.996 31.8765 139.06 29.2437 139.06 26.0026C139.06 22.7614 137.996 20.1381 135.867 18.1326C133.766 16.1271 131.19 15.1196 128.13 15.1196C125.82 15.1196 123.767 15.6899 121.99 16.84L120.935 22.3717L119.842 21.8775C119.347 21.6589 118.758 21.4973 118.064 21.4213ZM128.13 31.6199C126.571 31.6199 125.269 31.1066 124.214 30.0896C123.168 29.0441 122.636 27.6754 122.636 25.9931C122.636 24.3107 123.159 23.0561 124.214 22.0391C125.259 21.0221 126.571 20.5088 128.13 20.5088C129.688 20.5088 130.991 21.0221 132.046 22.0391C133.091 23.0561 133.623 24.3773 133.623 25.9931C133.623 27.6089 133.101 29.0346 132.046 30.0896C131 31.1066 129.688 31.6199 128.13 31.6199Z" fill="#3328BF"/>
<path id="Subtract" fill-rule="evenodd" clip-rule="evenodd" d="M69.5946 35.4482C71.4318 36.5659 73.6398 37.1269 76.2143 37.1269C79.2178 37.1269 81.7745 36.3285 83.8751 34.7507C86.0041 33.1444 87.1257 30.9678 87.2493 28.2305C87.4013 26.1299 86.8311 24.229 85.5194 22.5276C84.2077 20.8263 81.9266 19.5336 78.676 18.6497L74.798 17.5091C72.2983 16.8438 71.0532 15.6367 71.0532 13.9068C71.0532 12.8138 71.4904 11.9298 72.3743 11.2645C73.2868 10.5706 74.4084 10.219 75.7485 10.219C77.2123 10.219 78.3528 10.5992 79.1702 11.3595C80.0162 12.0914 80.4439 13.0799 80.4439 14.325H86.2798C86.2798 11.4356 85.2913 9.13542 83.3143 7.43407C81.3658 5.69471 78.7805 4.82977 75.8341 4.82977C72.8876 4.82977 70.3783 5.70421 68.3063 7.43407C66.2836 9.11807 65.2666 11.2956 65.2461 13.9666H69.6325V21.3397C70.6393 21.9147 71.8194 22.3994 73.1727 22.7937L77.0507 23.8013C78.5714 24.229 79.674 24.7897 80.3773 25.4931C81.1092 26.1964 81.4419 27.0614 81.3848 28.0974C81.3278 29.1904 80.8241 30.1029 79.8831 30.8348C78.9421 31.5286 77.7065 31.8803 76.1857 31.8803C74.5699 31.8803 73.2773 31.4621 72.3078 30.6066C71.3383 29.7227 70.8156 28.6772 70.7585 27.4606H69.6325V33.9087C69.6325 34.4338 69.6199 34.947 69.5946 35.4482Z" fill="#0D0D0D"/>
<path id="Subtract_2" fill-rule="evenodd" clip-rule="evenodd" d="M46.9414 32.9817C47.2954 33.4734 47.6954 33.939 48.1414 34.3786C50.3332 36.4764 52.9164 37.5254 55.891 37.5254C57.394 37.5254 58.803 37.2123 60.1181 36.586C61.4331 35.9598 62.3568 35.1144 62.8891 34.0498C63.077 36.6173 62.6543 38.7152 61.621 40.3434C60.5877 41.9716 58.7873 42.7857 56.2198 42.7857C55.0299 42.7857 53.8714 42.4413 52.7442 41.7524C51.6483 41.0949 50.8655 40.2338 50.3958 39.1692C49.9575 39.3571 49.1747 39.7328 48.0475 40.2964C46.9203 40.8914 46.1531 41.2984 45.7461 41.5176C46.7167 43.5215 48.1258 45.1028 49.9731 46.2613C51.8518 47.4198 53.934 47.9991 56.2198 47.9991C60.1337 47.9991 63.1553 46.8405 65.2845 44.5235C67.4136 42.2064 68.4782 38.6682 68.4782 33.9089V15.122H62.8891V18.0809C62.2942 17.0164 61.3392 16.1866 60.0241 15.5917C58.7404 14.9655 57.3626 14.6523 55.891 14.6523C52.9164 14.6523 50.3332 15.7169 48.1414 17.8461C47.7194 18.2621 47.3385 18.7025 46.9989 19.1675C48.2446 21.1187 48.8591 23.4154 48.8591 26.0179C48.8591 28.6618 48.225 30.9962 46.9414 32.9817ZM61.0104 21.7444C62.169 22.809 62.7482 24.2493 62.7482 26.0654C62.7482 27.8501 62.1376 29.3061 60.9165 30.4333C59.7267 31.5292 58.349 32.0772 56.7834 32.0772C55.1239 32.0772 53.7149 31.5292 52.5563 30.4333C51.4291 29.3061 50.8655 27.8501 50.8655 26.0654C50.8655 24.3432 51.4448 22.9342 52.6033 21.8383C53.7618 20.7111 55.1552 20.1475 56.7834 20.1475C58.4429 20.1475 59.8519 20.6798 61.0104 21.7444Z" fill="#3328BF"/>
<path id="Subtract_3" fill-rule="evenodd" clip-rule="evenodd" d="M28.6816 34.7526C30.8037 36.5698 33.34 37.4784 36.2905 37.4784C39.4843 37.4784 42.1771 36.4138 44.3689 34.2846C46.592 32.1555 47.7035 29.4 47.7035 26.0184C47.7035 22.6368 46.592 19.897 44.3689 17.7991C42.1771 15.7013 39.4843 14.6523 36.2905 14.6523C33.34 14.6523 30.8037 15.5476 28.6816 17.338V34.7526ZM36.2905 31.8893C34.6623 31.8893 33.3003 31.357 32.2044 30.2924C31.1085 29.1965 30.5605 27.7718 30.5605 26.0184C30.5605 24.3276 31.1085 22.9499 32.2044 21.8853C33.3003 20.8207 34.6623 20.2884 36.2905 20.2884C37.9187 20.2884 39.2808 20.8207 40.3767 21.8853C41.4726 22.9499 42.0205 24.3276 42.0205 26.0184C42.0205 27.7718 41.4726 29.1965 40.3767 30.2924C39.2808 31.357 37.9187 31.8893 36.2905 31.8893Z" fill="#3328BF"/>
<path id="Subtract_4" fill-rule="evenodd" clip-rule="evenodd" d="M21.7969 35.0206V37.0555H27.5269V3.19217H21.7969V8.16815C22.699 9.6771 23.136 11.4616 23.136 13.4774C23.136 15.0302 22.7362 16.4851 21.943 17.8209C21.8959 17.9014 21.8472 17.9806 21.7969 18.0585V20.6312C22.2633 21.0516 22.6864 21.5286 23.0644 22.0622C24.2421 23.7249 24.8738 25.4879 24.8738 27.3327C24.8738 30.3358 23.8475 32.9225 21.7969 35.0206Z" fill="#3328BF"/>
<path id="Vector_8" d="M21.9806 13.4775C21.9806 14.8239 21.6362 16.0764 20.9474 17.2349C20.2898 18.3621 19.2096 19.2075 17.7066 19.7711C19.5853 20.2408 21.057 21.2271 22.1216 22.7301C23.1861 24.233 23.7184 25.7673 23.7184 27.3329C23.7184 30.057 22.7947 32.3584 20.9474 34.237C19.1313 36.1157 16.7047 37.0551 13.6675 37.0551H0V4.69467H12.6811C15.5305 4.69467 17.7849 5.49311 19.4444 7.09C21.1352 8.65557 21.9806 10.7848 21.9806 13.4775ZM6.0118 17.7046H12.2584C13.323 17.7046 14.1684 17.3445 14.7947 16.6243C15.4209 15.8729 15.734 14.9335 15.734 13.8063C15.734 12.6478 15.4052 11.7398 14.7477 11.0822C14.1215 10.3934 13.2291 10.0489 12.0706 10.0489H6.0118V17.7046ZM13.1978 22.7301H6.0118V31.7008H13.3387C14.5911 31.7008 15.5775 31.2625 16.2976 30.3857C17.0491 29.4777 17.4248 28.4288 17.4248 27.2389C17.4248 26.0804 17.0491 25.0471 16.2976 24.1391C15.5461 23.1997 14.5129 22.7301 13.1978 22.7301Z" fill="#3328BF"/>
</g>
</g>
<defs>
<clipPath id="clip0_2019_8508">
<rect width="170.103" height="47.9984" fill="white"/>
</clipPath>
</defs>
</svg>
