<svg width="14" height="14" viewBox="0 0 14 14" fill="none" xmlns="http://www.w3.org/2000/svg">
<g id="person">
<path id="Vector" d="M7.00065 3.49839C7.64232 3.49839 8.16732 4.02339 8.16732 4.66506C8.16732 5.30673 7.64232 5.83173 7.00065 5.83173C6.35898 5.83173 5.83398 5.30673 5.83398 4.66506C5.83398 4.02339 6.35898 3.49839 7.00065 3.49839ZM7.00065 9.33173C8.57565 9.33173 10.384 10.0842 10.5007 10.4984H3.50065C3.63482 10.0784 5.43148 9.33173 7.00065 9.33173ZM7.00065 2.33173C5.71148 2.33173 4.66732 3.37589 4.66732 4.66506C4.66732 5.95423 5.71148 6.99839 7.00065 6.99839C8.28982 6.99839 9.33398 5.95423 9.33398 4.66506C9.33398 3.37589 8.28982 2.33173 7.00065 2.33173ZM7.00065 8.16506C5.44315 8.16506 2.33398 8.94673 2.33398 10.4984V11.6651H11.6673V10.4984C11.6673 8.94673 8.55815 8.16506 7.00065 8.16506Z" fill="#0D0D0D"/>
</g>
</svg>
