<svg width="24" height="24" viewBox="0 0 24 24" fill="none" xmlns="http://www.w3.org/2000/svg">
<g id="search">
<path id="Vector" d="M15.7539 14.2542H14.9639L14.6839 13.9842C15.6639 12.8442 16.2539 11.3642 16.2539 9.75421C16.2539 6.16421 13.3439 3.25421 9.75391 3.25421C6.16391 3.25421 3.25391 6.16421 3.25391 9.75421C3.25391 13.3442 6.16391 16.2542 9.75391 16.2542C11.3639 16.2542 12.8439 15.6642 13.9839 14.6842L14.2539 14.9642V15.7542L19.2539 20.7442L20.7439 19.2542L15.7539 14.2542ZM9.75391 14.2542C7.26391 14.2542 5.25391 12.2442 5.25391 9.75421C5.25391 7.26421 7.26391 5.25421 9.75391 5.25421C12.2439 5.25421 14.2539 7.26421 14.2539 9.75421C14.2539 12.2442 12.2439 14.2542 9.75391 14.2542Z" fill="#0D0D0D"/>
</g>
</svg>
